<svg width="172" height="386" viewBox="0 0 172 386" fill="none" xmlns="http://www.w3.org/2000/svg">
<rect x="57" y="11" width="13" height="13" fill="black"/>
<rect x="68" width="36" height="13" fill="black"/>
<rect x="102" y="11" width="13" height="13" fill="black"/>
<rect x="34" y="226" width="13" height="13" fill="black"/>
<rect x="23" y="237" width="13" height="13" fill="black"/>
<rect x="136" y="237" width="13" height="13" fill="black"/>
<rect x="125" y="226" width="13" height="13" fill="black"/>
<rect x="12" y="249" width="12" height="24" fill="black"/>
<rect x="148" y="249" width="12" height="24" fill="black"/>
<rect x="127" y="271" width="11" height="58" fill="black"/>
<rect x="34" y="271" width="11" height="58" fill="black"/>
<rect y="271" width="13" height="58" fill="black"/>
<rect x="12" y="328" width="13" height="24" fill="black"/>
<rect x="23" y="350" width="13" height="13" fill="black"/>
<rect x="136" y="350" width="13" height="13" fill="black"/>
<rect x="147" y="328" width="14" height="24" fill="black"/>
<rect x="147" y="328" width="14" height="24" fill="black"/>
<rect x="159" y="271" width="13" height="58" fill="black"/>
<rect x="159" y="271" width="13" height="58" fill="black"/>
<rect x="115" y="260" width="12" height="81" fill="black"/>
<rect x="45" y="260" width="12" height="81" fill="black"/>
<rect x="113" y="362" width="25" height="12" fill="black"/>
<rect x="34" y="362" width="25" height="12" fill="black"/>
<rect x="57" y="373" width="58" height="13" fill="black"/>
<rect x="57" y="249" width="58" height="103" fill="black"/>
<rect x="68" y="124" width="36" height="125" fill="black"/>
<rect x="45" y="22" width="14" height="13" fill="black"/>
<rect x="45" y="34" width="37" height="13" fill="black"/>
<rect x="45" y="46" width="14" height="11" fill="black"/>
<rect x="45" y="68" width="14" height="12" fill="black"/>
<rect x="45" y="91" width="14" height="12" fill="black"/>
<rect x="45" y="113" width="14" height="12" fill="black"/>
<rect x="45" y="125" width="14" height="102" fill="black"/>
<rect x="113" y="125" width="14" height="102" fill="black"/>
<rect x="113" y="22" width="14" height="104" fill="black"/>
<rect x="45" y="102" width="36" height="12" fill="black"/>
<rect x="45" y="79" width="36" height="13" fill="black"/>
<rect x="45" y="56" width="36" height="13" fill="black"/>
</svg>
